#48000
guildhall gh~
a guildhall~
The guildhall of %s&n is here.~
~
25 1 0 0 0 0 0 0 0 0 0
0 7 -1 0 0 0 0 0
0 0 100
#48001
portal~
a portal~
A portal to %s&n is here.~
~
25 15 3 0 7 0 0 0 0 0 0
0 7 0 0 0 0 0 0
0 0 100
#48002
heartstone power~
&+Wthe culminated &+rpo&+Rwe&+rr &nof %s&n~
&+WThe heartstone of %s has been erected here.&n~
~
13 15 3 0 7 0 33554433 0 0 0 0
0 0 0 0 0 0 0 0
0 0 100
#48003
outpost op~
an outpost~
An outpost of %s&n is here.~
~
25 1 0 0 0 0 0 0 0 0 0
0 7 -1 0 0 0 0 0
0 0 100
#48004
fountain~
a &+Bfountain&N~
A large &+Bfountain&N rests here.~
~
17 15 3 0 7 0 0 0 0 0 0
-1 -1 0 0 0 0 0 0
0 0 100
#48005
fountain~
&+Wa fountain&N~
&+WA marble white fountain rests here.&N~
~
17 15 3 0 7 0 0 0 0 0 0
-1 -1 17 0 0 0 0 0
0 0 100
#48006
fountain~
&+La fountain&N~
&+LA fountain of smooth obsidian rests here.&N~
~
17 15 3 0 7 0 0 0 0 0 0
-1 -1 28 0 0 0 0 0
0 0 100
#48007
cabinet storage~
&+ya storage cabinet&n~
&+yA storage cabinet is bolted to the wall here.&n~
~
35 16 4 25 7 0 98304 0 64 0 0
250 5 0 125 0 0 0 0
0 0 100
#48008
looking glass~
&+wthe &+cl&+Coo&+ck&+Ci&+cng &+wgl&+Wa&+wss&n~
&+wA &+bmagical &+cl&+Coo&+ck&+Ci&+cng &+wgl&+Wa&+wss &nsits upon a pedestal in the center of this room.&n~
~
8 22 4 0 14 0 65537 0 1 0 0
0 0 0 0 0 0 0 0
0 0 100
#48009
heartstone onyx rock~
the heartstone~
An onyx rock fills the room, pulsing with energy.~
~
8 36 5 0 15 0 33619969 0 0 0 0
0 0 0 0 0 0 0 0
0 0 100
#48010
counter wooden~
&+ya wooden bank counter~
A wooden bank counter stands here.~
~
8 22 4 0 14 0 65537 0 1 0 0
0 0 0 0 0 0 0 0
0 0 100
#48011
void portal town egress~
&+wthe egress&n~
&+wA large, spacious &+Lvoid &+wdisplays views of %s&n &+where.&n~
~
25 15 3 0 7 0 1 0 0 0 0
0 7 -1 0 0 0 0 0
0 0 100
#48012
magical tome~
&+Wa magical tome&N~
&+WA magical tome sits open on a stand here.&N~
~
33 15 3 0 7 0 0 0 0 0 0
0 0 99993 0 0 0 0 0
0 0 100
#48013
cargo information board~
&+ya cargo information board&N~
&+YA board with current cargo prices hangs on the wall here.&N~
~
33 15 3 0 7 0 0 0 0 0 0
0 0 99993 0 0 0 0 0
0 0 100
#48014
anvil forge hearth iron~
&+La great iron anvil&n~
&+LA great iron anvil squats before the banked hearth here.&n~
~
12 15 4 0 14 0 65536 0 0 0 0
0 0 0 0 0 0 0 0
0 0 100
#48015
loom looms ash~
&+ya tall ash loom&n~
&+yA tall loom of dark-stained ash stands here, its warp drawn taut.&n~
~
12 6 4 0 14 0 65536 0 0 0 0
0 0 0 0 0 0 0 0
0 0 100
#48016
bench workbench jeweller jewellers~
&+ca jeweller's workbench&n~
&+cA broad jeweller's workbench stands here beneath the lamps.&n~
~
12 6 4 0 14 0 65536 0 0 0 0
0 0 0 0 0 0 0 0
0 0 100
#48017
counter store ledger bell~
&+Ythe guild store's counter&n~
&+YA broad counter crosses the room, a ledger open upon it.  '&+Wlist&+Y' and '&+Wbuy&+Y' here.&n~
~
12 6 4 0 14 0 65536 0 0 0 0
0 0 0 0 0 0 0 0
0 0 100
#48018
kingdom crafted blank _kingdom_craft_~
a piece of kingdom work~
A piece of kingdom work lies here.~
~
12 0 3 0 7 0 0 0 0 0 0
0 0 0 0 0 0 0 0
1 0 100
#48100
board~
&+ya board&N~
&+yA bulletin board stands here.&N~
~
13 15 3 0 7 0 0 0 0 0 0
0 0 0 0 0 0 0 0
0 0 100
#48101
board~
&+ya board&N~
&+yA bulletin board stands here.&N~
~
13 15 3 0 7 0 0 0 0 0 0
0 0 0 0 0 0 0 0
0 0 100
#48102
board~
&+ya board&N~
&+yA bulletin board stands here.&N~
~
13 15 3 0 7 0 0 0 0 0 0
0 0 0 0 0 0 0 0
0 0 100
#48103
board~
&+ya board&N~
&+yA bulletin board stands here.&N~
~
13 15 3 0 7 0 0 0 0 0 0
0 0 0 0 0 0 0 0
0 0 100
#48104
board~
&+ya board&N~
&+yA bulletin board stands here.&N~
~
13 15 3 0 7 0 0 0 0 0 0
0 0 0 0 0 0 0 0
0 0 100
#48105
board~
&+ya board&N~
&+yA bulletin board stands here.&N~
~
13 15 3 0 7 0 0 0 0 0 0
0 0 0 0 0 0 0 0
0 0 100
#48106
board~
&+ya board&N~
&+yA bulletin board stands here.&N~
~
13 15 3 0 7 0 0 0 0 0 0
0 0 0 0 0 0 0 0
0 0 100
#48107
board~
&+ya board&N~
&+yA bulletin board stands here.&N~
~
13 15 3 0 7 0 0 0 0 0 0
0 0 0 0 0 0 0 0
0 0 100
#48108
board~
&+ya board&N~
&+yA bulletin board stands here.&N~
~
13 15 3 0 7 0 0 0 0 0 0
0 0 0 0 0 0 0 0
0 0 100
#48109
board~
&+ya board&N~
&+yA bulletin board stands here.&N~
~
13 15 3 0 7 0 0 0 0 0 0
0 0 0 0 0 0 0 0
0 0 100
#48110
board~
&+ya board&N~
&+yA bulletin board stands here.&N~
~
13 15 3 0 7 0 0 0 0 0 0
0 0 0 0 0 0 0 0
0 0 100
#48111
board~
&+ya board&N~
&+yA bulletin board stands here.&N~
~
13 15 3 0 7 0 0 0 0 0 0
0 0 0 0 0 0 0 0
0 0 100
#48112
board~
&+ya board&N~
&+yA bulletin board stands here.&N~
~
13 15 3 0 7 0 0 0 0 0 0
0 0 0 0 0 0 0 0
0 0 100
#48113
board~
&+ya board&N~
&+yA bulletin board stands here.&N~
~
13 15 3 0 7 0 0 0 0 0 0
0 0 0 0 0 0 0 0
0 0 100
#48114
board~
&+ya board&N~
&+yA bulletin board stands here.&N~
~
13 15 3 0 7 0 0 0 0 0 0
0 0 0 0 0 0 0 0
0 0 100
#48115
board~
&+ya board&N~
&+yA bulletin board stands here.&N~
~
13 15 3 0 7 0 0 0 0 0 0
0 0 0 0 0 0 0 0
0 0 100
#48116
board~
&+ya board&N~
&+yA bulletin board stands here.&N~
~
13 15 3 0 7 0 0 0 0 0 0
0 0 0 0 0 0 0 0
0 0 100
#48117
board~
&+ya board&N~
&+yA bulletin board stands here.&N~
~
13 15 3 0 7 0 0 0 0 0 0
0 0 0 0 0 0 0 0
0 0 100
#48118
board~
&+ya board&N~
&+yA bulletin board stands here.&N~
~
13 15 3 0 7 0 0 0 0 0 0
0 0 0 0 0 0 0 0
0 0 100
#48119
board~
&+ya board&N~
&+yA bulletin board stands here.&N~
~
13 15 3 0 7 0 0 0 0 0 0
0 0 0 0 0 0 0 0
0 0 100
#48120
board~
&+ya board&N~
&+yA bulletin board stands here.&N~
~
13 15 3 0 7 0 0 0 0 0 0
0 0 0 0 0 0 0 0
0 0 100
#48121
board~
&+ya board&N~
&+yA bulletin board stands here.&N~
~
13 15 3 0 7 0 0 0 0 0 0
0 0 0 0 0 0 0 0
0 0 100
#48122
board~
&+ya board&N~
&+yA bulletin board stands here.&N~
~
13 15 3 0 7 0 0 0 0 0 0
0 0 0 0 0 0 0 0
0 0 100
#48123
board~
&+ya board&N~
&+yA bulletin board stands here.&N~
~
13 15 3 0 7 0 0 0 0 0 0
0 0 0 0 0 0 0 0
0 0 100
#48124
board~
&+ya board&N~
&+yA bulletin board stands here.&N~
~
13 15 3 0 7 0 0 0 0 0 0
0 0 0 0 0 0 0 0
0 0 100
#48125
board~
&+ya board&N~
&+yA bulletin board stands here.&N~
~
13 15 3 0 7 0 0 0 0 0 0
0 0 0 0 0 0 0 0
0 0 100
#48126
board~
&+ya board&N~
&+yA bulletin board stands here.&N~
~
13 15 3 0 7 0 0 0 0 0 0
0 0 0 0 0 0 0 0
0 0 100
#48127
board~
&+ya board&N~
&+yA bulletin board stands here.&N~
~
13 15 3 0 7 0 0 0 0 0 0
0 0 0 0 0 0 0 0
0 0 100
#48128
board~
&+ya board&N~
&+yA bulletin board stands here.&N~
~
13 15 3 0 7 0 0 0 0 0 0
0 0 0 0 0 0 0 0
0 0 100
#48129
board~
&+ya board&N~
&+yA bulletin board stands here.&N~
~
13 15 3 0 7 0 0 0 0 0 0
0 0 0 0 0 0 0 0
0 0 100
